<?xml version="1.0" standalone="no"?>
<!DOCTYPE svg PUBLIC "-//W3C//DTD SVG 20010904//EN"
 "http://www.w3.org/TR/2001/REC-SVG-20010904/DTD/svg10.dtd">
<svg version="1.0" xmlns="http://www.w3.org/2000/svg"
 width="255.000000pt" height="256.000000pt" viewBox="0 0 255.000000 256.000000"
 preserveAspectRatio="xMidYMid meet">

<g transform="translate(0.000000,256.000000) scale(0.100000,-0.100000)"
fill="#000000" stroke="none">
<path d="M271 2538 c-101 -29 -205 -139 -241 -255 -59 -191 24 -410 185 -489
l55 -26 0 -834 c0 -495 4 -843 9 -857 32 -83 130 -89 170 -10 8 15 11 263 11
861 l0 840 55 26 c133 65 217 234 202 401 -15 158 -128 307 -262 344 -48 13
-137 13 -184 -1z m156 -217 c83 -38 123 -145 89 -236 -46 -119 -185 -151 -265
-60 -83 94 -59 238 49 293 54 27 73 27 127 3z"/>
<path d="M1230 2537 c-9 -7 -24 -23 -33 -37 -16 -23 -17 -89 -17 -866 l0 -842
-55 -26 c-195 -96 -265 -395 -137 -589 41 -63 86 -104 153 -139 37 -19 59 -23
134 -23 76 0 98 4 138 24 148 76 235 254 209 429 -20 135 -94 247 -197 298
l-55 26 0 844 0 843 -31 36 c-33 37 -78 47 -109 22z m103 -1961 c139 -57 139
-277 0 -338 -77 -34 -156 -2 -200 81 -76 145 57 317 200 257z"/>
<path d="M2126 2525 c-14 -13 -27 -25 -28 -27 -1 -2 -5 -189 -8 -417 l-5 -414
-45 -24 c-124 -66 -210 -214 -210 -363 0 -149 86 -297 210 -363 l45 -24 5
-409 c3 -225 9 -417 13 -426 27 -54 99 -62 143 -17 l29 30 5 411 5 411 45 24
c124 66 210 214 210 363 0 149 -86 297 -210 363 l-45 24 -5 411 -5 411 -29 30
c-38 39 -82 41 -120 6z m144 -1090 c56 -41 75 -81 75 -155 0 -74 -19 -114 -75
-155 -65 -48 -165 -27 -214 44 -64 92 -34 227 62 277 44 23 113 18 152 -11z"/>
</g>
</svg>
